<svg xmlns="http://www.w3.org/2000/svg" viewBox="0 0 64 64" width="64" height="64">
  <circle cx="32" cy="32" r="30" fill="#1a1a2e" stroke="#16213e" stroke-width="4"/>
  <g transform="translate(12, 12)">
    <path d="M12 8h24c3 0 6 1 6 4s-3 4-6 4H12V8z" fill="#f7931a"/>
    <path d="M12 16h28c3 0 6 1 6 4s-3 4-6 4H12V16z" fill="#f7931a"/>
    <rect x="8" y="4" width="2" height="4" fill="#f7931a"/>
    <rect x="8" y="32" width="2" height="4" fill="#f7931a"/>
    <rect x="28" y="4" width="2" height="4" fill="#f7931a"/>
    <rect x="28" y="32" width="2" height="4" fill="#f7931a"/>
  </g>
  <g transform="translate(36, 16)">
    <polyline points="0,24 6,16 12,20 18,8 24,12" stroke="#00d4aa" stroke-width="4" fill="none"/>
    <circle cx="0" cy="24" r="2" fill="#00d4aa"/>
    <circle cx="6" cy="16" r="2" fill="#00d4aa"/>
    <circle cx="12" cy="20" r="2" fill="#00d4aa"/>
    <circle cx="18" cy="8" r="2" fill="#00d4aa"/>
    <circle cx="24" cy="12" r="2" fill="#00d4aa"/>
  </g>
  <circle cx="50" cy="50" r="6" fill="#4a9eff"/>
  <circle cx="48" cy="48" r="1" fill="white"/>
  <circle cx="51" cy="48" r="1" fill="white"/>
  <circle cx="51" cy="51" r="1" fill="white"/>
</svg>
